<svg xmlns="http://www.w3.org/2000/svg" version="1.1" xmlns:xlink="http://www.w3.org/1999/xlink" xmlns:svgjs="http://svgjs.dev/svgjs" width="100%" height="100%" viewBox="0 0 1000 600"><rect width="1000" height="600" x="0" y="0" fill="#20232a"/><g><rect width="333.3333333333333" height="333.3333333333333" rx="13.333333333333334" ry="13.333333333333334" y="229.67726985130366" fill="#61dafb" transform="matrix(0.6025401644432655,0,0,0.6025401644432654,0,61.18684774107837)" x="207.45504760742188"/><path d="M251.56016280040708 329.53523264457635L251.56016280040708 329.53523264457635Q251.56016280040708 323.04849028282115 263.4919808672852 323.04849028282115L263.4919808672852 323.04849028282115L350.42379821168277 323.04849028282115Q362.7344041536998 323.04849028282115 362.7344041536998 329.53523264457635L362.7344041536998 329.53523264457635Q362.7344041536998 336.3534143970781 350.09235882093617 336.3534143970781L350.09235882093617 336.3534143970781L338.16054075405805 336.3534143970781Q318.74766215318493 336.3534143970781 318.74766215318493 354.06174755982573L318.74766215318493 354.06174755982573L318.74766215318493 453.635610236987Q318.74766215318493 471.34394339973466 306.8158440863068 471.34394339973466L306.8158440863068 471.34394339973466Q295.21546541017534 471.34394339973466 295.21546541017534 453.635610236987L295.21546541017534 453.635610236987L295.21546541017534 354.06174755982573Q295.21546541017534 336.3534143970781 275.8025868093023 336.3534143970781L275.8025868093023 336.3534143970781L264.5336475239174 336.3534143970781Q251.56016280040708 336.3534143970781 251.56016280040708 329.53523264457635ZM408.3783431079478 339.09962649183575L408.3783431079478 339.09962649183575L408.3783431079478 438.62614068460465Q408.3783431079478 456.71326172249127 428.8328883654531 456.71326172249127L428.8328883654531 456.71326172249127L452.6965244992093 456.71326172249127Q472.4881909752214 456.71326172249127 472.4881909752214 438.62614068460465L472.4881909752214 438.62614068460465L472.819630365968 339.09962649183575Q472.819630365968 321.3439448446957 484.751448432846 321.3439448446957L484.751448432846 321.3439448446957Q496.68326649972414 321.3439448446957 496.68326649972414 338.0579598352035L496.68326649972414 338.0579598352035L496.68326649972414 444.78144365561315Q496.68326649972414 469.3079585708626 468.41622131747727 469.3079585708626L468.41622131747727 469.3079585708626L412.1662218593376 469.3079585708626Q384.18326758344494 469.3079585708626 384.18326758344494 445.1128830463598L384.18326758344494 445.1128830463598L384.18326758344494 338.0579598352035Q384.18326758344494 321.3439448446957 396.44652504106966 321.3439448446957L396.44652504106966 321.3439448446957Q408.3783431079478 321.3439448446957 408.3783431079478 339.09962649183575Z " fill="#20232a" transform="matrix(0.6025401644432655,0,0,0.6025401644432654,0,61.18684774107837)"/><path d="M624.1217167582929 335.4135356644447L624.1217167582929 335.4135356644447Q624.1217167582929 329.1956837811211 635.5589333611947 329.1956837811211L635.5589333611947 329.1956837811211L718.8872257537648 329.1956837811211Q730.6875285980285 329.1956837811211 730.6875285980285 335.4135356644447L730.6875285980285 335.4135356644447Q730.6875285980285 341.94908800895996 718.569525292573 341.94908800895996L718.569525292573 341.94908800895996L707.1323086896713 341.94908800895996Q688.5241388198708 341.94908800895996 688.5241388198708 358.92336979263166L688.5241388198708 358.92336979263166L688.5241388198708 454.3696654906572Q688.5241388198708 471.3439472743289 677.086922216969 471.3439472743289L677.086922216969 471.3439472743289Q665.9674060752589 471.3439472743289 665.9674060752589 454.3696654906572L665.9674060752589 454.3696654906572L665.9674060752589 358.92336979263166Q665.9674060752589 341.94908800895996 647.3592362054584 341.94908800895996L647.3592362054584 341.94908800895996L636.55742052494 341.94908800895996Q624.1217167582929 341.94908800895996 624.1217167582929 335.4135356644447ZM783.925048737726 458.2728425852983L783.925048737726 458.2728425852983L816.9205109214943 458.2728425852983Q829.3562146881414 458.2728425852983 829.3562146881414 464.1729940074302L829.3562146881414 464.1729940074302Q829.3562146881414 469.39235872700834 817.6012976240479 469.39235872700834L817.6012976240479 469.39235872700834L776.7540954708273 469.39235872700834Q751.2472870151496 469.39235872700834 751.2472870151496 445.5194383574594L751.2472870151496 445.5194383574594L751.2472870151496 373.31066210659935Q751.2472870151496 349.80082797841237 777.3894963932107 349.80082797841237L777.3894963932107 349.80082797841237L804.5301929350173 349.80082797841237Q816.6028104603026 349.80082797841237 823.0022054643072 354.8386495773096Q829.3562146881414 359.92185695637704 829.3562146881414 369.4074850119583L829.3562146881414 369.4074850119583L829.3562146881414 406.98691099292125Q829.3562146881414 419.0595285182065 823.0022054643072 424.2788932377847Q816.6028104603026 429.5436437375331 804.5301929350173 429.5436437375331L804.5301929350173 429.5436437375331L784.6058354402797 429.5436437375331Q774.8025069235068 429.5436437375331 774.8025069235068 444.24863651269254L774.8025069235068 444.24863651269254Q774.8025069235068 458.2728425852983 783.925048737726 458.2728425852983ZM774.8025069235068 377.2592249814107L774.8025069235068 377.2592249814107L774.8025069235068 401.7675462733431Q774.8025069235068 418.10642713463136 790.7783015434331 418.10642713463136L790.7783015434331 418.10642713463136Q805.8463805599545 418.10642713463136 805.8463805599545 401.7675462733431L805.8463805599545 401.7675462733431L805.8463805599545 377.2592249814107Q805.8463805599545 360.9203441201225 790.7783015434331 360.9203441201225L790.7783015434331 360.9203441201225Q774.8025069235068 360.9203441201225 774.8025069235068 377.2592249814107ZM878.0551568108145 378.53002682617756L887.1776986250338 396.50279577359464Q888.1761857887791 398.81747056227715 889.4923734137162 398.81747056227715L889.4923734137162 398.81747056227715Q890.1277743360997 398.81747056227715 891.4439619610368 397.18358247614833L891.4439619610368 397.18358247614833L901.2472904778098 378.53002682617756Q905.1504675724509 371.35907355927884 908.2820864041978 367.77359692582945Q911.3683194557746 364.1881202923801 914.9537960892237 364.1881202923801L914.9537960892237 364.1881202923801Q918.5846585028435 364.1881202923801 920.2185465889722 366.6389524215733Q921.852434675101 369.0897845507666 921.852434675101 372.99296164540766L921.852434675101 372.99296164540766Q921.852434675101 378.53002682617756 918.9023589640351 385.42866541205484L918.9023589640351 385.42866541205484L904.5150666500674 409.57390046262526Q900.2488033140644 413.8401637986283 900.2488033140644 418.42412759582305L900.2488033140644 418.42412759582305Q900.2488033140644 423.64349231540126 905.5135538138129 428.22745611259603L905.5135538138129 428.22745611259603L919.8554603476102 452.41807694333664Q922.8055360586762 458.953629287852 922.8055360586762 461.8583192187477L922.8055360586762 461.8583192187477Q922.8055360586762 465.80688209355895 920.2185465889722 468.0761711020712Q917.586171339098 470.3908458907537 914.6360956280321 470.3908458907537L914.6360956280321 470.3908458907537Q911.6860199169662 470.0277596493918 908.4182437447085 467.44077017968783Q905.1504675724509 464.8083949298136 902.2457776415552 459.5890302102354L902.2457776415552 459.5890302102354L891.4439619610368 438.9838860129441Q890.4454747972915 438.03078462936895 889.4923734137162 438.03078462936895L889.4923734137162 438.03078462936895Q888.493886249971 438.03078462936895 887.5407848663957 438.9838860129441L887.5407848663957 438.9838860129441L877.0566696470692 459.5890302102354Q870.2034168413621 470.7085463519455 863.9855649580385 470.7085463519455L863.9855649580385 470.7085463519455Q861.0354892469726 470.7085463519455 858.2669566565876 468.2577142227522Q855.4984240662027 465.80688209355895 855.4984240662027 462.85680638249306L855.4984240662027 462.85680638249306Q855.4984240662027 458.2728425852983 859.0839006996521 452.41807694333664L859.0839006996521 452.41807694333664L873.4711930136198 428.22745611259603Q877.7374563496228 423.961192776593 877.7374563496228 418.74182805701474L877.7374563496228 418.74182805701474Q877.7374563496228 414.4755647210117 874.4696801773651 409.57390046262526L874.4696801773651 409.57390046262526L860.0823878633975 385.42866541205484Q858.130799316077 381.7978029984352 857.3138552730125 378.71156994685856Q856.4969112299481 375.62533689528186 856.1338249885861 372.99296164540766L856.1338249885861 372.99296164540766Q856.1338249885861 369.4074850119583 858.130799316077 366.95665288276507Q860.0823878633975 364.5058207535718 863.6678644968467 364.5058207535718L863.6678644968467 364.5058207535718Q870.8388177637455 364.5058207535718 878.0551568108145 378.53002682617756L878.0551568108145 378.53002682617756ZM962.6996368283217 322.34243097541406L962.6996368283217 322.34243097541406Q974.1368534312235 322.34243097541406 974.1368534312235 339.31671275908576L974.1368534312235 339.31671275908576L974.1368534312235 350.1185284396041Q974.1368534312235 367.45589646463776 993.0627237622157 367.45589646463776L993.0627237622157 367.45589646463776L999.2805756455393 367.45589646463776Q1012.3516803345699 367.45589646463776 1012.3516803345699 372.99296164540766L1012.3516803345699 372.99296164540766Q1012.3516803345699 378.8931130675395 999.2805756455393 378.8931130675395L999.2805756455393 378.8931130675395L993.0627237622157 378.8931130675395Q974.1368534312235 378.8931130675395 974.1368534312235 401.7675462733431L974.1368534312235 401.7675462733431L974.1368534312235 437.71308416817726Q974.1368534312235 456.95665496036116 992.745023301024 456.95665496036116L992.745023301024 456.95665496036116L1000.5967632704765 456.95665496036116Q1013.3501674983154 456.95665496036116 1013.3501674983154 463.1745068436848L1013.3501674983154 463.1745068436848Q1013.3501674983154 469.39235872700834 1001.5498646540516 469.39235872700834L1001.5498646540516 469.39235872700834L974.4545538924152 469.39235872700834Q950.5816335228662 469.39235872700834 950.5816335228662 445.5194383574594L950.5816335228662 445.5194383574594L950.5816335228662 337.68282467295694Q950.5816335228662 322.34243097541406 962.6996368283217 322.34243097541406ZM1055.8312577376648 344.5814632588342L1055.8312577376648 344.5814632588342L1055.8312577376648 439.9823731766895Q1055.8312577376648 457.31974120172316 1075.4379147712107 457.31974120172316L1075.4379147712107 457.31974120172316L1098.3123479770143 457.31974120172316Q1117.2382183080065 457.31974120172316 1117.2382183080065 439.9823731766895L1117.2382183080065 439.9823731766895L1117.5559187691981 344.5814632588342Q1117.5559187691981 327.56179569499227 1128.9931353721 327.56179569499227L1128.9931353721 327.56179569499227Q1140.4303519750017 327.56179569499227 1140.4303519750017 343.58297609508884L1140.4303519750017 343.58297609508884L1140.4303519750017 445.88252459882136Q1140.4303519750017 469.39235872700834 1113.3350412133655 469.39235872700834L1113.3350412133655 469.39235872700834L1059.4167343711142 469.39235872700834Q1032.5937382904992 469.39235872700834 1032.5937382904992 446.2002250600131L1032.5937382904992 446.2002250600131L1032.5937382904992 343.58297609508884Q1032.5937382904992 327.56179569499227 1044.394041134763 327.56179569499227L1044.394041134763 327.56179569499227Q1055.8312577376648 327.56179569499227 1055.8312577376648 344.5814632588342ZM1184.5453303004801 322.34243097541406L1184.5453303004801 322.34243097541406Q1195.9825469033817 322.34243097541406 1195.9825469033817 339.31671275908576L1195.9825469033817 339.31671275908576L1195.9825469033817 350.1185284396041Q1195.9825469033817 367.45589646463776 1214.9538030145443 367.45589646463776L1214.9538030145443 367.45589646463776L1221.171654897868 367.45589646463776Q1234.2427595868983 367.45589646463776 1234.2427595868983 372.99296164540766L1234.2427595868983 372.99296164540766Q1234.2427595868983 378.8931130675395 1221.171654897868 378.8931130675395L1221.171654897868 378.8931130675395L1214.9538030145443 378.8931130675395Q1195.9825469033817 378.8931130675395 1195.9825469033817 401.7675462733431L1195.9825469033817 401.7675462733431L1195.9825469033817 437.71308416817726Q1195.9825469033817 456.95665496036116 1214.6361025533524 456.95665496036116L1214.6361025533524 456.95665496036116L1222.4878425228048 456.95665496036116Q1235.1958609704736 456.95665496036116 1235.1958609704736 463.1745068436848L1235.1958609704736 463.1745068436848Q1235.1958609704736 469.39235872700834 1223.4409439063802 469.39235872700834L1223.4409439063802 469.39235872700834L1196.3456331447437 469.39235872700834Q1172.4727127751949 469.39235872700834 1172.4727127751949 445.5194383574594L1172.4727127751949 445.5194383574594L1172.4727127751949 337.68282467295694Q1172.4727127751949 322.34243097541406 1184.5453303004801 322.34243097541406ZM1269.1898103179872 338.99901229789407L1269.1898103179872 338.99901229789407Q1256.7994923315102 338.99901229789407 1256.7994923315102 330.19417094486647L1256.7994923315102 330.19417094486647Q1256.7994923315102 321.3439438116687 1269.1898103179872 321.3439438116687L1269.1898103179872 321.3439438116687Q1280.9447273820808 321.3439438116687 1280.9447273820808 330.19417094486647L1280.9447273820808 330.19417094486647Q1280.9447273820808 338.99901229789407 1269.1898103179872 338.99901229789407ZM1269.1898103179872 470.7085463519455L1269.1898103179872 470.7085463519455Q1257.117192792702 470.7085463519455 1257.117192792702 455.6858531155943L1257.117192792702 455.6858531155943L1257.117192792702 383.431691084564Q1257.117192792702 368.0912973870212 1269.1898103179872 368.0912973870212L1269.1898103179872 368.0912973870212Q1280.627026920889 368.0912973870212 1280.627026920889 382.7962901621806L1280.627026920889 382.7962901621806L1280.627026920889 455.3227668742324Q1280.627026920889 470.7085463519455 1269.1898103179872 470.7085463519455ZM1327.6920809574333 471.0262468131372L1327.6920809574333 471.0262468131372Q1315.9371638933396 471.0262468131372 1315.9371638933396 455.3227668742324L1315.9371638933396 455.3227668742324L1315.9371638933396 338.0459109143189Q1315.9371638933396 322.9778318977975 1327.6920809574333 322.9778318977975L1327.6920809574333 322.9778318977975Q1339.129297560335 322.9778318977975 1339.129297560335 338.0459109143189L1339.129297560335 338.0459109143189L1339.129297560335 455.3227668742324Q1339.129297560335 471.0262468131372 1327.6920809574333 471.0262468131372ZM1422.1398894917136 423.0080913930178L1422.1398894917136 423.0080913930178L1400.8993443720385 423.0080913930178Q1373.7586478302321 423.0080913930178 1373.7586478302321 404.35453574304705L1373.7586478302321 404.35453574304705L1373.7586478302321 390.648030131633Q1373.7586478302321 367.45589646463776 1399.9008572082932 367.45589646463776L1399.9008572082932 367.45589646463776L1436.527181805681 367.45589646463776Q1448.917499792158 367.45589646463776 1448.917499792158 372.67526118421597L1448.917499792158 372.67526118421597Q1448.917499792158 378.8931130675395 1435.8463951031274 378.8931130675395L1435.8463951031274 378.8931130675395L1406.7541100140004 378.8931130675395Q1397.3138677385894 378.8931130675395 1397.3138677385894 389.6495429678876L1397.3138677385894 389.6495429678876L1397.3138677385894 404.0368352818553Q1397.3138677385894 412.5239761736912 1406.7541100140004 412.5239761736912L1406.7541100140004 412.5239761736912L1425.407665663971 412.5239761736912Q1450.233687417095 412.5239761736912 1452.1852759644155 432.81141990979074L1452.1852759644155 432.81141990979074L1452.1852759644155 445.88252459882136Q1452.1852759644155 469.39235872700834 1426.3607670475462 469.39235872700834L1426.3607670475462 469.39235872700834L1385.8766511356873 469.39235872700834Q1373.7586478302321 469.39235872700834 1373.7586478302321 463.1745068436848L1373.7586478302321 463.1745068436848Q1373.7586478302321 457.31974120172316 1386.8297525192627 457.31974120172316L1386.8297525192627 457.31974120172316L1422.1398894917136 457.31974120172316Q1431.6255175472945 457.31974120172316 1431.6255175472945 446.8356259823965L1431.6255175472945 446.8356259823965L1431.6255175472945 432.13063320723705Q1431.6255175472945 423.0080913930178 1422.1398894917136 423.0080913930178Z " fill="#61dafb" transform="matrix(0.6025401644432655,0,0,0.6025401644432654,0,61.18684774107837)"/></g></svg>